<svg width="64" height="64" viewBox="0 0 64 64" fill="none" xmlns="http://www.w3.org/2000/svg">
<rect width="64" height="64" rx="32" fill="#FF5722"/>
<path fill-rule="evenodd" clip-rule="evenodd" d="M28.6667 32.7383C32.3395 32.7383 35.2835 29.7561 35.2835 26.0358C35.2835 22.3155 32.3395 19.3333 28.6667 19.3333C24.994 19.3333 22.0499 22.3155 22.0499 26.0358C22.0499 29.7561 24.994 32.7383 28.6667 32.7383ZM28.6667 36.0203C23.2724 36.0203 18.6667 36.8828 18.6667 40.3285C18.6667 43.7731 23.2443 44.6667 28.6667 44.6667C34.0598 44.6667 38.6667 43.8041 38.6667 40.3583C38.6667 36.9125 34.0891 36.0203 28.6667 36.0203ZM42.5306 28.7838H44.1347C44.795 28.7838 45.3334 29.3297 45.3334 29.9993C45.3334 30.6688 44.795 31.2148 44.1347 31.2148H42.5306V32.7845C42.5306 33.4541 41.9937 34 41.3321 34C40.6718 34 40.1334 33.4541 40.1334 32.7845V31.2148H38.5321C37.8703 31.2148 37.3334 30.6688 37.3334 29.9993C37.3334 29.3297 37.8703 28.7838 38.5321 28.7838H40.1334V27.2155C40.1334 26.5459 40.6718 26 41.3321 26C41.9937 26 42.5306 26.5459 42.5306 27.2155V28.7838Z" fill="white"/>
</svg>
