<svg width="100" height="100" viewBox="0 0 100 100" fill="none" xmlns="http://www.w3.org/2000/svg">
<rect width="100" height="100" rx="50" fill="white"/>
<rect x="0.5" y="0.5" width="99" height="99" rx="49.5" stroke="#191825" stroke-opacity="0.1"/>
<rect x="38.5" y="38.5" width="23" height="23" stroke="#191825" stroke-opacity="0.1"/>
<path d="M44.4143 49H58.0001C58.5524 49 59.0001 49.4477 59.0001 50C59.0001 50.5523 58.5524 51 58.0001 51H44.4143L47.6569 54.2426C48.0475 54.6331 48.0475 55.2663 47.6569 55.6568C47.2664 56.0474 46.6333 56.0474 46.2427 55.6568L42.0001 51.4142C41.219 50.6331 41.219 49.3668 42.0001 48.5858L46.2427 44.3431C46.6333 43.9526 47.2664 43.9526 47.6569 44.3431C48.0475 44.7336 48.0475 45.3668 47.6569 45.7573L44.4143 49Z" fill="#191825"/>
</svg>
