<svg width="100" height="100" viewBox="0 0 100 100" fill="none" xmlns="http://www.w3.org/2000/svg">
<rect width="100" height="100" rx="50" transform="matrix(-1 0 0 1 100 0)" fill="#5D50C6"/>
<path d="M55.5857 49H41.9999C41.4476 49 40.9999 49.4477 40.9999 50C40.9999 50.5523 41.4476 51 41.9999 51H55.5857L52.3431 54.2426C51.9525 54.6331 51.9525 55.2663 52.3431 55.6568C52.7336 56.0474 53.3667 56.0474 53.7573 55.6568L57.9999 51.4142C58.781 50.6331 58.781 49.3668 57.9999 48.5858L53.7573 44.3431C53.3667 43.9526 52.7336 43.9526 52.3431 44.3431C51.9525 44.7336 51.9525 45.3668 52.3431 45.7573L55.5857 49Z" fill="white"/>
</svg>
