<svg width="64" height="64" viewBox="0 0 64 64" fill="none" xmlns="http://www.w3.org/2000/svg">
<rect width="64" height="64" rx="32" fill="#F85E9F"/>
<path d="M44.5806 19.4426C43.9137 18.7581 42.9266 18.5031 42.0062 18.7715L20.5441 25.0127C19.573 25.2825 18.8847 26.0569 18.6993 27.0407C18.5099 28.042 19.1715 29.313 20.0359 29.8445L26.7466 33.9691C27.4349 34.3919 28.3233 34.2859 28.8928 33.7113L36.5773 25.9791C36.9641 25.5764 37.6043 25.5764 37.9913 25.9791C38.3781 26.3683 38.3781 26.9991 37.9913 27.4018L30.2934 35.1355C29.7225 35.7085 29.6158 36.6011 30.0359 37.2936L34.1363 44.0717C34.6165 44.8769 35.4435 45.3333 36.3505 45.3333C36.4573 45.3333 36.5773 45.3333 36.6841 45.3199C37.7245 45.1857 38.5514 44.4744 38.8582 43.4677L45.2209 22.033C45.501 21.1204 45.2475 20.1272 44.5806 19.4426Z" fill="white"/>
</svg>
