<svg width="166" height="56" viewBox="0 0 166 56" fill="none" xmlns="http://www.w3.org/2000/svg">
<rect width="166" height="56" rx="28" fill="white"/>
<path fill-rule="evenodd" clip-rule="evenodd" d="M35.5 26.3178C35.5 21.7179 39.3439 18 43.9934 18C48.6561 18 52.5 21.7179 52.5 26.3178C52.5 28.6357 51.657 30.7876 50.2695 32.6116C48.7388 34.6235 46.8522 36.3765 44.7285 37.7524C44.2425 38.0704 43.8039 38.0944 43.2704 37.7524C41.1347 36.3765 39.2481 34.6235 37.7305 32.6116C36.342 30.7876 35.5 28.6357 35.5 26.3178ZM41.1942 26.5768C41.1942 28.1177 42.4517 29.3297 43.9934 29.3297C45.5362 29.3297 46.8058 28.1177 46.8058 26.5768C46.8058 25.0478 45.5362 23.7768 43.9934 23.7768C42.4517 23.7768 41.1942 25.0478 41.1942 26.5768Z" fill="#FACD49"/>
<path d="M72.442 25.408H69.306V33.5H67.36V25.408H64.224V23.574H72.442V25.408ZM75.4298 32.016C76.3398 32.016 77.1798 31.358 77.1798 30.056C77.1798 28.754 76.3398 28.096 75.4298 28.096C74.5198 28.096 73.6798 28.754 73.6798 30.056C73.6798 31.344 74.5198 32.016 75.4298 32.016ZM75.4298 26.402C77.4878 26.402 79.0418 27.928 79.0418 30.056C79.0418 32.17 77.4878 33.71 75.4298 33.71C73.3718 33.71 71.8178 32.17 71.8178 30.056C71.8178 27.928 73.3718 26.402 75.4298 26.402ZM82.3736 36.16H80.5116V26.612H82.3176V27.452C82.6256 26.92 83.3956 26.458 84.4316 26.458C86.4476 26.458 87.6096 27.998 87.6096 30.042C87.6096 32.128 86.3076 33.668 84.3616 33.668C83.4096 33.668 82.7096 33.29 82.3736 32.828V36.16ZM85.7756 30.056C85.7756 28.838 85.0196 28.124 84.0676 28.124C83.1156 28.124 82.3456 28.838 82.3456 30.056C82.3456 31.274 83.1156 32.002 84.0676 32.002C85.0196 32.002 85.7756 31.288 85.7756 30.056ZM94.6288 28.096H96.1548C97.1208 28.096 97.7088 27.536 97.7088 26.682C97.7088 25.8 97.1208 25.254 96.1548 25.254H94.6288V28.096ZM96.3928 29.762H94.6148V33.5H92.6828V23.574H96.3928C98.3528 23.574 99.6548 24.876 99.6548 26.668C99.6548 28.474 98.3528 29.762 96.3928 29.762ZM102.799 33.5H100.937V23.364H102.799V33.5ZM104.332 31.624C104.332 30.392 105.242 29.706 106.39 29.538L108.084 29.286C108.476 29.23 108.602 29.034 108.602 28.796C108.602 28.306 108.224 27.9 107.44 27.9C106.628 27.9 106.18 28.418 106.124 29.02L104.472 28.67C104.584 27.592 105.578 26.402 107.426 26.402C109.61 26.402 110.422 27.634 110.422 29.02V32.408C110.422 32.772 110.464 33.262 110.506 33.5H108.798C108.756 33.318 108.728 32.94 108.728 32.674C108.378 33.22 107.72 33.696 106.698 33.696C105.228 33.696 104.332 32.702 104.332 31.624ZM107.09 32.31C107.874 32.31 108.602 31.932 108.602 30.714V30.406L107.048 30.644C106.572 30.714 106.194 30.98 106.194 31.512C106.194 31.918 106.488 32.31 107.09 32.31ZM115.365 28.124C114.413 28.124 113.615 28.81 113.615 30.056C113.615 31.302 114.427 32.002 115.379 32.002C116.331 32.002 116.807 31.372 116.961 30.84L118.599 31.386C118.291 32.534 117.213 33.71 115.379 33.71C113.349 33.71 111.753 32.17 111.753 30.056C111.753 27.928 113.321 26.402 115.323 26.402C117.199 26.402 118.263 27.564 118.557 28.726L116.891 29.286C116.723 28.712 116.289 28.124 115.365 28.124ZM121.258 29.272H124.338C124.31 28.586 123.862 27.914 122.798 27.914C121.832 27.914 121.3 28.642 121.258 29.272ZM124.52 31.064L126.074 31.526C125.724 32.716 124.632 33.71 122.938 33.71C121.048 33.71 119.382 32.352 119.382 30.028C119.382 27.83 121.006 26.402 122.77 26.402C124.898 26.402 126.172 27.76 126.172 29.972C126.172 30.238 126.144 30.518 126.144 30.546H121.216C121.258 31.456 122.028 32.114 122.952 32.114C123.82 32.114 124.296 31.68 124.52 31.064ZM127.051 31.582L128.647 31.232C128.689 31.778 129.095 32.282 129.907 32.282C130.523 32.282 130.817 31.96 130.817 31.596C130.817 31.288 130.607 31.036 130.075 30.924L129.165 30.714C127.835 30.42 127.233 29.622 127.233 28.656C127.233 27.424 128.325 26.402 129.809 26.402C131.769 26.402 132.427 27.648 132.511 28.39L130.957 28.74C130.901 28.334 130.607 27.816 129.823 27.816C129.333 27.816 128.941 28.11 128.941 28.502C128.941 28.838 129.193 29.048 129.571 29.118L130.551 29.328C131.909 29.608 132.595 30.434 132.595 31.442C132.595 32.562 131.727 33.71 129.921 33.71C127.849 33.71 127.135 32.366 127.051 31.582Z" fill="#393E46"/>
</svg>
